HIERARCHY
ROOT mixamorig:Hips
{
	OFFSET 0.000000 3.528733 0.000000
	CHANNELS 6 Xposition Yposition Zposition Xrotation Yrotation Zrotation
	JOINT mixamorig:Spine
	{
		OFFSET 0.000000 0.284700 -0.015200
		CHANNELS 3 Xrotation Yrotation Zrotation
		JOINT mixamorig:Spine1
		{
			OFFSET 0.000000 0.332125 -0.017771
			CHANNELS 3 Xrotation Yrotation Zrotation
			JOINT mixamorig:Spine2
			{
				OFFSET 0.000000 0.379557 -0.020309
				CHANNELS 3 Xrotation Yrotation Zrotation
				JOINT mixamorig:Neck
				{
					OFFSET 0.000000 0.426989 -0.022847
					CHANNELS 3 Xrotation Yrotation Zrotation
					JOINT mixamorig:Head
					{
						OFFSET 0.000000 0.288600 0.098000
						CHANNELS 3 Xrotation Yrotation Zrotation
						JOINT mixamorig:HeadTop_End
						{
							OFFSET 0.000000 0.712700 0.242000
							CHANNELS 3 Xrotation Yrotation Zrotation
							End Site
							{
								OFFSET 0.000000 0.752666 0.000000
							}
						}
					}
				}
				JOINT mixamorig:LeftShoulder
				{
					OFFSET 0.202600 0.346984 -0.022672
					CHANNELS 3 Xrotation Yrotation Zrotation
					JOINT mixamorig:LeftArm
					{
						OFFSET 0.427337 -0.109325 0.000307
						CHANNELS 3 Xrotation Yrotation Zrotation
						JOINT mixamorig:LeftForeArm
						{
							OFFSET 0.849600 0.000000 0.000000
							CHANNELS 3 Xrotation Yrotation Zrotation
							JOINT mixamorig:LeftHand
							{
								OFFSET 0.753900 0.000000 0.000000
								CHANNELS 3 Xrotation Yrotation Zrotation
								JOINT mixamorig:LeftHandThumb1
								{
									OFFSET 0.136012 -0.086473 0.045448
									CHANNELS 3 Xrotation Yrotation Zrotation
									JOINT mixamorig:LeftHandThumb2
									{
										OFFSET 0.103772 -0.059913 0.059913
										CHANNELS 3 Xrotation Yrotation Zrotation
										JOINT mixamorig:LeftHandThumb3
										{
											OFFSET 0.095779 -0.055298 0.055298
											CHANNELS 3 Xrotation Yrotation Zrotation
											JOINT mixamorig:LeftHandThumb4
											{
												OFFSET 0.073275 -0.042305 0.042305
												CHANNELS 3 Xrotation Yrotation Zrotation
												End Site
												{
													OFFSET 0.065698 -0.038445 0.056164
												}
											}
										}
									}
								}
								JOINT mixamorig:LeftHandIndex1
								{
									OFFSET 0.449965 -0.020370 0.085418
									CHANNELS 3 Xrotation Yrotation Zrotation
									JOINT mixamorig:LeftHandIndex2
									{
										OFFSET 0.102424 0.000000 -0.000000
										CHANNELS 3 Xrotation Yrotation Zrotation
										JOINT mixamorig:LeftHandIndex3
										{
											OFFSET 0.096306 0.000000 -0.000000
											CHANNELS 3 Xrotation Yrotation Zrotation
											JOINT mixamorig:LeftHandIndex4
											{
												OFFSET 0.078408 0.000000 -0.000000
												CHANNELS 3 Xrotation Yrotation Zrotation
												End Site
												{
													OFFSET 0.078400 -0.000010 -0.001100
												}
											}
										}
									}
								}
								JOINT mixamorig:LeftHandMiddle1
								{
									OFFSET 0.430485 0.000000 0.000000
									CHANNELS 3 Xrotation Yrotation Zrotation
									JOINT mixamorig:LeftHandMiddle2
									{
										OFFSET 0.112203 0.000000 0.000000
										CHANNELS 3 Xrotation Yrotation Zrotation
										JOINT mixamorig:LeftHandMiddle3
										{
											OFFSET 0.108209 0.000000 0.000000
											CHANNELS 3 Xrotation Yrotation Zrotation
											JOINT mixamorig:LeftHandMiddle4
											{
												OFFSET 0.087466 0.000000 0.000000
												CHANNELS 3 Xrotation Yrotation Zrotation
												End Site
												{
													OFFSET 0.087400 -0.000057 -0.003400
												}
											}
										}
									}
								}
								JOINT mixamorig:LeftHandRing1
								{
									OFFSET 0.364574 -0.002440 -0.092011
									CHANNELS 3 Xrotation Yrotation Zrotation
									JOINT mixamorig:LeftHandRing2
									{
										OFFSET 0.114832 0.000000 0.000000
										CHANNELS 3 Xrotation Yrotation Zrotation
										JOINT mixamorig:LeftHandRing3
										{
											OFFSET 0.104409 0.000000 0.000000
											CHANNELS 3 Xrotation Yrotation Zrotation
											JOINT mixamorig:LeftHandRing4
											{
												OFFSET 0.080424 0.000000 0.000000
												CHANNELS 3 Xrotation Yrotation Zrotation
												End Site
												{
													OFFSET 0.080200 -0.000053 -0.006000
												}
											}
										}
									}
								}
								JOINT mixamorig:LeftHandPinky1
								{
									OFFSET 0.312269 -0.016255 -0.171399
									CHANNELS 3 Xrotation Yrotation Zrotation
									JOINT mixamorig:LeftHandPinky2
									{
										OFFSET 0.087028 0.000000 0.000000
										CHANNELS 3 Xrotation Yrotation Zrotation
										JOINT mixamorig:LeftHandPinky3
										{
											OFFSET 0.073733 0.000000 0.000000
											CHANNELS 3 Xrotation Yrotation Zrotation
											JOINT mixamorig:LeftHandPinky4
											{
												OFFSET 0.056250 0.000000 0.000000
												CHANNELS 3 Xrotation Yrotation Zrotation
												End Site
												{
													OFFSET 0.056100 -0.000056 -0.004100
												}
											}
										}
									}
								}
							}
						}
					}
				}
				JOINT mixamorig:RightShoulder
				{
					OFFSET -0.202600 0.346968 -0.022971
					CHANNELS 3 Xrotation Yrotation Zrotation
					JOINT mixamorig:RightArm
					{
						OFFSET -0.427342 -0.109309 -0.000307
						CHANNELS 3 Xrotation Yrotation Zrotation
						JOINT mixamorig:RightForeArm
						{
							OFFSET -0.849600 0.000000 -0.000000
							CHANNELS 3 Xrotation Yrotation Zrotation
							JOINT mixamorig:RightHand
							{
								OFFSET -0.753900 0.000000 -0.000000
								CHANNELS 3 Xrotation Yrotation Zrotation
								JOINT mixamorig:RightHandThumb1
								{
									OFFSET -0.139217 -0.077736 0.046135
									CHANNELS 3 Xrotation Yrotation Zrotation
									JOINT mixamorig:RightHandThumb2
									{
										OFFSET -0.102889 -0.059403 0.059403
										CHANNELS 3 Xrotation Yrotation Zrotation
										JOINT mixamorig:RightHandThumb3
										{
											OFFSET -0.097122 -0.056073 0.056073
											CHANNELS 3 Xrotation Yrotation Zrotation
											JOINT mixamorig:RightHandThumb4
											{
												OFFSET -0.076714 -0.044291 0.044291
												CHANNELS 3 Xrotation Yrotation Zrotation
												End Site
												{
													OFFSET -0.072157 -0.042014 0.053259
												}
											}
										}
									}
								}
								JOINT mixamorig:RightHandIndex1
								{
									OFFSET -0.450325 -0.003448 0.076701
									CHANNELS 3 Xrotation Yrotation Zrotation
									JOINT mixamorig:RightHandIndex2
									{
										OFFSET -0.104343 0.000000 -0.000000
										CHANNELS 3 Xrotation Yrotation Zrotation
										JOINT mixamorig:RightHandIndex3
										{
											OFFSET -0.097003 0.000000 -0.000000
											CHANNELS 3 Xrotation Yrotation Zrotation
											JOINT mixamorig:RightHandIndex4
											{
												OFFSET -0.081630 0.000000 -0.000000
												CHANNELS 3 Xrotation Yrotation Zrotation
												End Site
												{
													OFFSET -0.081600 -0.000082 -0.002198
												}
											}
										}
									}
								}
								JOINT mixamorig:RightHandMiddle1
								{
									OFFSET -0.397234 0.000000 -0.000000
									CHANNELS 3 Xrotation Yrotation Zrotation
									JOINT mixamorig:RightHandMiddle2
									{
										OFFSET -0.115313 0.000000 -0.000000
										CHANNELS 3 Xrotation Yrotation Zrotation
										JOINT mixamorig:RightHandMiddle3
										{
											OFFSET -0.121324 0.000000 -0.000000
											CHANNELS 3 Xrotation Yrotation Zrotation
											JOINT mixamorig:RightHandMiddle4
											{
												OFFSET -0.103502 0.000000 0.000000
												CHANNELS 3 Xrotation Yrotation Zrotation
												End Site
												{
													OFFSET -0.103400 -0.000083 -0.004599
												}
											}
										}
									}
								}
								JOINT mixamorig:RightHandRing1
								{
									OFFSET -0.356229 0.006227 -0.097026
									CHANNELS 3 Xrotation Yrotation Zrotation
									JOINT mixamorig:RightHandRing2
									{
										OFFSET -0.116123 0.000000 0.000000
										CHANNELS 3 Xrotation Yrotation Zrotation
										JOINT mixamorig:RightHandRing3
										{
											OFFSET -0.105608 0.000000 0.000000
											CHANNELS 3 Xrotation Yrotation Zrotation
											JOINT mixamorig:RightHandRing4
											{
												OFFSET -0.089388 0.000000 0.000000
												CHANNELS 3 Xrotation Yrotation Zrotation
												End Site
												{
													OFFSET -0.089200 -0.000198 -0.005797
												}
											}
										}
									}
								}
								JOINT mixamorig:RightHandPinky1
								{
									OFFSET -0.319258 -0.005155 -0.189362
									CHANNELS 3 Xrotation Yrotation Zrotation
									JOINT mixamorig:RightHandPinky2
									{
										OFFSET -0.084919 0.000000 0.000000
										CHANNELS 3 Xrotation Yrotation Zrotation
										JOINT mixamorig:RightHandPinky3
										{
											OFFSET -0.068357 0.000000 0.000000
											CHANNELS 3 Xrotation Yrotation Zrotation
											JOINT mixamorig:RightHandPinky4
											{
												OFFSET -0.053427 0.000000 0.000000
												CHANNELS 3 Xrotation Yrotation Zrotation
												End Site
												{
													OFFSET -0.053400 -0.000117 -0.001696
												}
											}
										}
									}
								}
							}
						}
					}
				}
			}
		}
	}
	JOINT mixamorig:LeftUpLeg
	{
		OFFSET 0.302300 -0.158000 -0.006800
		CHANNELS 3 Xrotation Yrotation Zrotation
		JOINT mixamorig:LeftLeg
		{
			OFFSET -0.021195 -1.512800 -0.072827
			CHANNELS 3 Xrotation Yrotation Zrotation
			JOINT mixamorig:LeftFoot
			{
				OFFSET 0.021196 -1.499076 -0.232845
				CHANNELS 3 Xrotation Yrotation Zrotation
				JOINT mixamorig:LeftToeBase
				{
					OFFSET 0.176214 -0.335644 0.384848
					CHANNELS 3 Xrotation Yrotation Zrotation
					JOINT mixamorig:LeftToe_End
					{
						OFFSET 0.078950 -0.008059 0.195507
						CHANNELS 3 Xrotation Yrotation Zrotation
						End Site
						{
							OFFSET 0.078950 -0.008059 0.195507
						}
					}
				}
			}
		}
	}
	JOINT mixamorig:RightUpLeg
	{
		OFFSET -0.302300 -0.158000 -0.006600
		CHANNELS 3 Xrotation Yrotation Zrotation
		JOINT mixamorig:RightLeg
		{
			OFFSET 0.021196 -1.512831 -0.074247
			CHANNELS 3 Xrotation Yrotation Zrotation
			JOINT mixamorig:RightFoot
			{
				OFFSET -0.021196 -1.499093 -0.231430
				CHANNELS 3 Xrotation Yrotation Zrotation
				JOINT mixamorig:RightToeBase
				{
					OFFSET -0.176206 -0.335620 0.376547
					CHANNELS 3 Xrotation Yrotation Zrotation
					JOINT mixamorig:RightToe_End
					{
						OFFSET -0.078935 -0.008056 0.196268
						CHANNELS 3 Xrotation Yrotation Zrotation
						End Site
						{
							OFFSET -0.078935 -0.008056 0.196268
						}
					}
				}
			}
		}
	}
}
MOTION
Frames: 5
Frame Time: 0.016667
0.075473 3.213510 -0.272403 4.506599 -3.008157 -1.261698 1.561012 0.265140 -0.537234 2.987336 0.430436 -0.218570 2.950179 0.471625 -0.183097 -7.644080 -1.287182 5.165031 -13.531081 2.104164 -4.078331 0.000001 -0.000000 0.000000 2.063876 -7.320295 -5.129448 5.872808 -13.494180 -70.480524 -0.000002 -24.560174 -0.000002 0.452457 -8.734617 -0.383565 -6.094547 -3.604810 17.887970 18.847509 22.046575 -3.283852 -0.913376 -21.843654 10.279536 0.000003 -0.000003 -0.000006 0.091197 4.873430 -47.068514 0.330706 1.942218 -19.324258 0.010218 0.346166 -3.379975 -0.000001 0.000002 0.000001 -0.629369 3.800204 -41.583049 0.332504 1.947349 -19.377600 0.034524 0.635778 -6.216430 0.000002 0.000001 0.000000 -3.018442 1.119341 -41.833047 0.418726 2.176893 -21.773298 0.207517 1.546964 -15.279907 -0.000001 0.000001 -0.000003 -2.383660 4.379200 -60.429095 0.644900 2.674076 -27.114157 0.056373 0.811634 -7.946034 0.000001 -0.000002 0.000000 0.035614 17.600247 20.838815 -9.071781 0.298531 56.522083 0.000022 14.342547 -0.000015 2.660460 -1.213479 7.433250 -6.601474 5.576954 -17.376718 17.251209 -17.345231 -0.237293 -9.222390 -18.437711 -2.455004 -0.000002 -0.000003 -0.000001 0.927843 6.342517 -3.311561 1.102886 -3.011315 40.223220 0.062691 -0.762332 9.400803 0.000002 -0.000000 -0.000002 -0.555033 4.819728 5.040698 0.958232 -2.831623 37.385146 0.243289 -1.487093 18.583285 -0.000001 -0.000000 0.000002 -0.086348 1.368330 2.216113 0.504081 -2.109222 26.878688 0.244837 -1.491635 18.642001 -0.000001 -0.000001 -0.000001 0.027921 -3.651727 -0.880030 0.501452 -2.104075 26.807798 0.172576 -1.257310 15.629802 0.000003 0.000001 0.000001 -25.947598 5.173213 0.925711 51.037629 1.200697 1.260884 -20.876881 -2.301297 6.335868 -4.166160 0.010200 -2.584899 0.000001 -0.000002 -0.000001 -28.200179 -4.894023 4.454030 52.253748 3.526186 -0.528945 -17.252366 2.557100 -10.781766 -6.127603 -0.000508 0.599855 -0.000000 0.000002 -0.000000 
0.074842 3.265317 -0.258403 4.136206 -3.223315 -1.171967 1.425141 0.236869 -0.522866 2.842008 0.389466 -0.189852 2.808249 0.430444 -0.160316 -7.159395 -1.220365 5.063778 -13.191486 2.256995 -4.245651 -0.000001 0.000000 -0.000000 1.963332 -7.467230 -4.979699 6.327059 -10.479727 -68.125120 -0.000005 -23.330581 -0.000000 -1.287283 -8.391291 -0.695269 -6.106126 -3.643537 18.086384 18.903594 22.171576 -3.349280 -0.903878 -21.827430 10.269175 0.000001 0.000002 -0.000002 0.107771 4.969299 -48.417087 0.326114 1.929121 -19.188774 0.008751 0.320382 -3.127865 0.000004 -0.000002 -0.000000 -0.674932 3.834074 -42.558376 0.342423 1.975267 -19.666765 0.035841 0.647759 -6.334130 -0.000001 0.000002 -0.000000 -2.968097 1.254341 -42.265614 0.437928 2.224329 -22.273305 0.210648 1.558398 -15.395622 0.000001 0.000000 -0.000000 -2.341627 4.517462 -61.348110 0.686589 2.753861 -27.994177 0.063085 0.858354 -8.406881 0.000001 -0.000001 0.000000 0.022979 17.455170 20.427311 -9.664999 -2.169198 54.882933 -0.000004 13.862780 0.000014 -0.808521 -1.458095 7.173679 -6.621602 5.584150 -17.410197 16.961675 -16.061398 -0.806606 -10.009353 -17.422081 -3.520201 -0.000001 -0.000002 0.000001 0.893103 5.595697 -5.984768 1.126517 -3.039004 40.671137 0.064275 -0.771986 9.520887 0.000001 -0.000000 -0.000001 -0.152784 5.178056 1.841493 0.983352 -2.864209 37.891472 0.246262 -1.495795 18.695976 0.000000 0.000001 0.000004 0.073424 1.443717 -0.241695 0.555854 -2.208342 28.253291 0.245782 -1.494431 18.678254 -0.000001 0.000000 0.000002 0.003850 -2.711000 -2.604935 0.502831 -2.106796 26.845278 0.176608 -1.271625 15.812398 -0.000001 0.000001 0.000003 -24.182561 6.085186 1.459250 48.093937 0.006038 1.098552 -17.502028 -2.102923 5.715626 -5.232682 0.004863 -1.805476 0.000001 0.000000 -0.000000 -26.638895 -5.076405 3.930118 49.746194 4.144978 -0.588839 -14.378510 2.530875 -8.816276 -7.118750 0.000002 -0.000002 -0.000000 -0.000003 0.000001 
0.073561 3.339315 -0.237783 3.892656 -3.324082 -1.096390 1.254577 0.226099 -0.446574 2.571474 0.369042 -0.114174 2.552805 0.404190 -0.105419 -7.050694 -1.162007 4.832609 -12.191883 2.263291 -4.490624 0.000000 0.000000 0.000000 1.850840 -7.522271 -5.577969 6.479085 -6.793253 -64.763266 -0.000015 -22.372951 0.000009 -3.559203 -7.997397 -0.879625 -6.124125 -3.684842 18.323263 18.845901 21.949684 -3.239738 -0.899274 -21.972876 10.346746 0.000001 0.000000 -0.000003 0.023702 4.959251 -49.480561 0.325671 1.927813 -19.175362 0.007518 0.297062 -2.900057 0.000001 0.000001 -0.000002 -0.706059 3.857018 -43.204754 0.349467 1.994848 -19.870040 0.037141 0.659438 -6.448894 0.000000 0.000001 -0.000000 -2.960913 1.309956 -42.533664 0.455280 2.266211 -22.716422 0.214552 1.572502 -15.538501 -0.000004 -0.000002 0.000001 -2.433570 4.525186 -61.809674 0.721751 2.818945 -28.717582 0.069518 0.900770 -8.825700 0.000001 -0.000000 -0.000000 0.125713 16.433005 20.219289 -10.577196 -4.663752 52.475718 -0.000012 13.380078 0.000012 -4.852636 -1.730678 6.774445 -6.652078 5.591297 -17.460363 16.797447 -15.263495 -1.154406 -10.782558 -16.671536 -4.989739 -0.000001 0.000000 -0.000001 0.860093 4.677168 -6.683770 1.151834 -3.068146 41.145978 0.066565 -0.785396 9.687855 0.000000 0.000000 -0.000001 0.190455 5.387475 -0.763333 1.000193 -2.885654 38.226653 0.248832 -1.503435 18.795065 -0.000001 -0.000002 -0.000006 0.175915 1.470278 -1.848541 0.587110 -2.265538 29.054559 0.246946 -1.497897 18.723210 0.000002 0.000000 0.000001 -0.121635 -1.833337 -3.738191 0.501302 -2.103777 26.803687 0.180434 -1.285069 15.984039 -0.000000 0.000001 0.000003 -22.123457 7.230779 2.070364 44.210882 -1.718986 0.968596 -13.024758 -1.830282 4.375951 -6.482798 -0.000008 0.000003 0.000000 -0.000002 0.000000 -24.831692 -5.440548 3.101880 46.200537 5.161939 -0.486630 -9.621905 2.514257 -5.582271 -8.289783 -0.000002 -0.000002 0.000000 0.000001 0.000000 
0.072125 3.428018 -0.213432 3.846785 -3.323031 -1.048462 1.065955 0.230524 -0.317336 2.220405 0.368683 -0.017491 2.220746 0.393779 -0.031997 -7.380467 -1.123575 4.531211 -10.735905 2.132596 -4.789449 -0.000000 0.000000 0.000000 1.737030 -7.330175 -6.748258 6.019016 -2.901050 -60.627853 0.000009 -21.957417 0.000009 -6.005641 -7.678542 -0.690134 -6.139059 -3.702968 18.453996 18.768848 21.666648 -3.103786 -0.878356 -22.231837 10.522849 -0.000007 -0.000003 0.000003 -0.147357 4.864471 -50.293968 0.330301 1.941116 -19.313026 0.006450 0.274970 -2.684115 0.000002 0.000000 0.000002 -0.757380 3.853226 -43.773993 0.355611 2.011747 -20.045680 0.038519 0.671449 -6.566965 0.000001 -0.000003 0.000001 -2.989764 1.327912 -42.815574 0.471842 2.305337 -23.131530 0.219112 1.588792 -15.703773 -0.000001 -0.000001 -0.000003 -2.647337 4.380799 -61.587502 0.751437 2.872388 -29.315527 0.074923 0.934963 -9.163592 0.000000 0.000001 -0.000000 0.337543 14.612449 20.174910 -11.842268 -6.844963 49.393828 0.000008 13.139911 0.000013 -8.831558 -1.888368 6.088345 -6.677214 5.595467 -17.501026 16.800349 -15.287611 -1.145589 -11.389241 -16.305762 -6.752285 -0.000001 -0.000003 -0.000006 0.597841 3.719755 -5.211585 1.186028 -3.106821 41.781148 0.069471 -0.802211 9.897371 0.000001 0.000001 -0.000002 0.379146 5.415683 -2.195783 1.010608 -2.898832 38.433321 0.250694 -1.508872 18.865654 0.000000 0.000000 0.000002 0.199547 1.513906 -2.197646 0.593517 -2.276984 29.215714 0.248092 -1.501243 18.766633 0.000000 -0.000000 -0.000007 -0.349352 -1.088891 -3.942605 0.499594 -2.100367 26.756708 0.183647 -1.296249 16.126958 -0.000000 -0.000000 0.000001 -20.267765 8.397746 2.715083 39.798881 -3.834552 0.768279 -6.408058 -1.457115 2.189395 -7.681276 0.000000 0.000003 -0.000001 -0.000003 0.000000 -23.092062 -5.942358 2.149195 41.906455 6.612137 -0.234088 -2.849714 2.500526 -1.469450 -9.029862 0.000012 -0.000002 -0.000000 -0.000001 0.000000 
0.070981 3.523759 -0.188668 4.013208 -3.258080 -1.022229 0.882784 0.245439 -0.169601 1.850482 0.382882 0.069055 1.865216 0.396961 0.041690 -8.104680 -1.111215 4.234106 -9.119793 1.909105 -5.105814 0.000000 0.000000 0.000000 1.655518 -6.775912 -8.172538 4.727193 0.740015 -55.971901 0.000002 -22.254136 -0.000009 -8.370112 -7.584341 -0.045437 -6.138749 -3.658808 18.282856 18.756190 21.564290 -3.070601 -0.833773 -22.541566 10.788987 -0.000001 0.000002 -0.000003 -0.377045 4.714609 -50.918780 0.339161 1.966177 -19.572592 0.005350 0.250784 -2.448005 0.000003 -0.000000 -0.000002 -0.860007 3.806813 -44.432296 0.361882 2.028919 -20.224579 0.040033 0.684480 -6.694925 -0.000000 -0.000000 0.000000 -3.053518 1.326947 -43.203450 0.487600 2.341870 -23.520457 0.224530 1.607923 -15.897837 -0.000001 -0.000001 0.000000 -2.998533 4.142844 -60.376748 0.777483 2.918226 -29.831237 0.079337 0.961927 -9.430140 -0.000001 0.000001 0.000000 0.641493 12.237775 20.200028 -13.475131 -8.492477 45.774661 0.000010 13.351683 0.000013 -12.259073 -1.797084 5.088915 -6.676144 5.589011 -17.498270 16.992531 -16.205655 -0.744283 -11.783125 -16.498651 -8.618710 -0.000001 -0.000002 -0.000007 0.359088 2.834668 -1.864888 1.230505 -3.155802 42.595266 0.072968 -0.822062 10.144914 0.000000 0.000002 0.000000 0.367979 5.264208 -2.166015 1.016656 -2.906416 38.552620 0.251956 -1.512576 18.913852 0.000001 -0.000000 -0.000001 0.136925 1.607724 -1.173622 0.574768 -2.243150 28.740210 0.249098 -1.504252 18.805633 -0.000001 0.000002 0.000003 -0.695249 -0.561448 -3.111628 0.498571 -2.098367 26.729146 0.186237 -1.305184 16.241242 -0.000000 0.000000 -0.000002 -18.993807 9.359401 3.408957 35.480702 -5.750377 0.439191 1.774334 -1.152396 -1.093015 -8.218315 0.000000 0.000007 0.000001 -0.000002 -0.000000 -21.718951 -6.469288 1.191177 37.400917 8.217290 0.109560 5.181887 2.549307 3.281023 -8.894674 -0.000000 -0.000001 -0.000001 0.000001 -0.000000 
